<svg xmlns="http://www.w3.org/2000/svg" viewBox="0 0 64 64" fill="none">
  <rect width="64" height="64" rx="12" fill="none"/>
  <path d="M10 44h44a2 2 0 0 0 2-2V30a2 2 0 0 0-.59-1.41l-8-8A2 2 0 0 0 46 20H36v-4a2 2 0 0 0-2-2H12a2 2 0 0 0-2 2v26a2 2 0 0 0 2 2z" stroke="#333" stroke-width="3" fill="#fff"/>
  <path d="M44 28h6l6 6v6h-12v-12z" fill="#f97316" stroke="#333" stroke-width="2"/>
  <circle cx="20" cy="46" r="4" fill="#333"/>
  <circle cx="48" cy="46" r="4" fill="#333"/>
  <path d="M22 28h4v-4h4v4h4v4h-4v4h-4v-4h-4v-4z" fill="#f97316" stroke="#333" stroke-width="1"/>
  <path d="M32 12v4M40 12l-2 3M24 12l2 3" stroke="#f97316" stroke-width="2" stroke-linecap="round"/>
</svg>
